<?xml version="1.0" standalone="no"?>
<!DOCTYPE svg PUBLIC "-//W3C//DTD SVG 20010904//EN"
 "http://www.w3.org/TR/2001/REC-SVG-20010904/DTD/svg10.dtd">
<svg version="1.0" xmlns="http://www.w3.org/2000/svg"
 width="973.000000pt" height="973.000000pt" viewBox="0 0 973.000000 973.000000"
 preserveAspectRatio="xMidYMid meet">
<metadata>
Created by potrace 1.14, written by Peter Selinger 2001-2017
</metadata>
<g transform="translate(0.000000,973.000000) scale(0.100000,-0.100000)"
fill="#000000" stroke="none">
<path d="M3862 9273 c-65 -19 -129 -74 -162 -139 -26 -53 -33 -140 -18 -254 4
-30 10 -80 13 -110 3 -30 7 -75 10 -100 6 -50 11 -110 20 -220 3 -41 8 -95 10
-120 3 -25 7 -83 10 -130 2 -47 7 -130 10 -185 4 -55 8 -129 10 -164 26 -408
26 -1424 0 -1826 -1 -22 -5 -94 -9 -160 -4 -66 -9 -136 -11 -155 -2 -19 -6
-76 -10 -127 -3 -51 -8 -101 -10 -113 -2 -11 -7 -55 -10 -98 -3 -42 -8 -90
-10 -107 -2 -16 -6 -50 -9 -75 -8 -71 -37 -301 -41 -319 -1 -9 -6 -41 -10 -71
-8 -64 -51 -322 -65 -395 -5 -27 -11 -61 -14 -75 -2 -14 -7 -36 -10 -50 -3
-14 -8 -36 -10 -50 -21 -117 -105 -460 -156 -635 -72 -243 -78 -263 -87 -279
-7 -13 -66 41 -293 267 -302 300 -404 394 -565 522 -244 195 -545 367 -759
435 -89 28 -118 35 -221 56 -16 3 -86 7 -155 9 -155 4 -278 -16 -400 -64 -276
-110 -500 -342 -655 -676 -42 -90 -126 -323 -139 -385 -3 -14 -12 -53 -20 -87
-15 -60 -19 -80 -31 -153 -3 -19 -7 -46 -10 -60 -16 -86 -33 -233 -41 -355 -5
-68 -5 -482 0 -535 2 -19 7 -73 11 -120 4 -47 9 -92 10 -100 2 -9 6 -43 10
-75 22 -190 76 -426 146 -635 187 -561 512 -889 904 -914 205 -13 623 121 968
311 76 41 305 188 317 203 3 3 21 17 40 30 19 14 44 32 55 41 291 242 451 416
703 764 82 114 216 340 296 500 22 44 41 82 43 84 1 2 45 -29 98 -69 52 -39
114 -85 137 -101 53 -37 237 -160 263 -176 379 -234 777 -408 1045 -458 14 -3
36 -7 50 -10 199 -41 490 -51 636 -21 12 2 37 7 55 10 19 3 49 10 67 15 18 5
33 9 35 9 6 -2 129 36 177 55 586 230 1031 818 1285 1697 20 69 38 132 40 141
2 9 15 63 28 120 24 98 58 262 71 339 3 19 8 46 11 60 3 13 7 42 11 64 3 22 7
43 9 46 1 3 6 39 10 80 4 41 8 77 10 80 2 3 6 37 10 75 4 39 9 79 11 89 2 10
6 58 10 105 4 47 8 93 10 101 1 8 3 36 3 61 l1 47 83 25 c454 138 622 193 952
314 197 71 572 215 620 238 17 7 53 22 80 33 221 88 254 104 294 138 146 126
119 361 -52 448 -75 39 -149 42 -232 11 -59 -22 -651 -258 -690 -275 -108 -47
-952 -334 -1006 -342 l-22 -3 -2 195 c-2 185 -12 437 -20 545 -2 28 -7 84 -10
125 -3 41 -8 93 -10 115 -2 22 -7 65 -9 95 -17 172 -27 263 -31 280 -2 8 -7
47 -11 85 -3 39 -8 79 -10 90 -2 11 -11 65 -19 120 -9 55 -18 114 -21 130 -7
39 -24 132 -30 170 -3 17 -15 73 -26 125 -10 52 -21 106 -24 118 -66 330 -206
795 -286 950 -69 133 -100 176 -203 278 -79 78 -106 98 -196 142 -124 60 -213
83 -333 86 -269 7 -566 -108 -861 -332 -33 -26 -62 -49 -65 -52 -3 -3 -34 -30
-70 -60 -243 -204 -540 -559 -740 -885 -113 -183 -273 -489 -295 -563 -4 -13
-9 -21 -12 -19 -2 3 -6 99 -8 213 -5 219 -12 451 -20 594 -3 47 -7 130 -10
185 -3 55 -8 127 -10 160 -2 33 -7 96 -10 140 -3 44 -8 103 -10 130 -3 28 -7
79 -10 115 -3 36 -8 88 -11 115 -3 28 -7 68 -9 90 -24 278 -39 330 -109 400
-74 73 -171 97 -274 68z m2608 -873 c84 -43 168 -172 223 -345 33 -101 100
-338 112 -395 2 -8 15 -64 29 -125 46 -192 76 -339 91 -435 3 -19 10 -57 15
-85 5 -27 12 -70 15 -95 4 -24 8 -47 10 -50 2 -3 6 -36 10 -74 3 -38 8 -72 10
-76 2 -4 7 -33 10 -66 3 -32 7 -70 10 -84 2 -14 6 -52 10 -85 3 -33 8 -78 10
-100 32 -290 48 -603 49 -954 l1 -255 -30 -8 c-50 -14 -417 -86 -472 -93 -13
-2 -42 -6 -65 -10 -51 -8 -76 -11 -143 -20 -27 -3 -66 -8 -85 -10 -189 -25
-606 -25 -750 -1 -14 3 -41 7 -60 10 -181 28 -384 105 -506 192 -144 101 -250
264 -295 449 -36 144 -33 401 6 599 92 471 348 991 714 1451 250 313 549 561
786 651 122 46 223 51 295 14z m-2145 -3287 c65 -103 236 -274 346 -346 160
-105 407 -208 587 -243 12 -2 34 -6 50 -9 15 -3 56 -10 92 -16 36 -5 76 -12
90 -14 130 -24 695 -24 820 0 9 2 47 6 85 10 39 3 113 13 165 21 52 8 113 17
135 20 22 3 72 12 110 19 39 8 84 17 100 20 17 2 39 7 50 9 11 3 34 8 52 11
l32 7 -5 -58 c-2 -33 -7 -77 -10 -99 -3 -22 -7 -56 -9 -75 -4 -41 -11 -90 -31
-215 -21 -135 -23 -142 -45 -250 -26 -122 -28 -134 -34 -165 -2 -14 -23 -91
-45 -172 -200 -730 -516 -1208 -924 -1397 -72 -33 -186 -69 -246 -77 -19 -3
-46 -7 -60 -10 -31 -6 -257 -6 -286 0 -12 2 -45 7 -74 11 -76 10 -281 67 -390
110 -150 58 -363 166 -525 266 -83 51 -161 101 -175 111 -14 10 -70 51 -125
90 -55 39 -146 107 -203 151 -83 65 -103 85 -99 101 3 12 28 89 57 171 65 190
163 522 195 665 2 8 17 74 33 145 52 227 114 550 137 715 3 25 8 52 10 60 2 8
7 44 10 80 4 36 9 68 10 71 2 3 6 27 9 55 3 27 8 65 11 84 3 19 8 58 11 85 3
28 6 59 8 70 2 11 4 38 5 60 2 46 -2 50 76 -72z m-2855 -1083 c165 -47 384
-164 552 -294 14 -12 41 -32 59 -46 99 -74 278 -237 468 -427 235 -235 507
-496 522 -501 16 -6 11 -18 -66 -172 -110 -222 -264 -470 -382 -620 -23 -30
-46 -60 -50 -65 -128 -170 -409 -431 -598 -555 -44 -29 -91 -60 -105 -69 -45
-31 -263 -138 -355 -174 -108 -43 -305 -103 -360 -110 -149 -19 -328 199 -444
541 -32 94 -85 301 -96 371 -3 20 -7 46 -9 58 -9 44 -16 97 -21 148 -3 28 -7
61 -9 72 -7 37 -19 285 -19 398 0 139 10 280 29 420 20 150 21 154 54 290 100
418 287 687 523 750 71 18 213 12 307 -15z"/>
</g>
</svg>
