<?xml version="1.0" encoding="utf-8"?>
<!-- Generator: Adobe Illustrator 28.1.0, SVG Export Plug-In . SVG Version: 6.00 Build 0)  -->
<svg version="1.1" id="Layer_1" xmlns="http://www.w3.org/2000/svg" xmlns:xlink="http://www.w3.org/1999/xlink" x="0px" y="0px"
	 viewBox="0 0 1000 1000" style="enable-background:new 0 0 1000 1000;" xml:space="preserve">
<style type="text/css">
	.st0{fill-rule:evenodd;clip-rule:evenodd;}
</style>
<path class="st0" d="M500.4,8.3C223.7,8.3,0,233.7,0,512.5c0,222.8,143.3,411.5,342.2,478.2c24.9,5,34-10.8,34-24.2
	c0-11.7-0.8-51.7-0.8-93.5c-139.2,30.1-168.2-60.1-168.2-60.1c-22.4-58.4-55.5-73.4-55.5-73.4c-45.6-30.9,3.3-30.9,3.3-30.9
	c50.5,3.3,77.1,51.7,77.1,51.7c44.7,76.8,116.8,55.1,145.8,41.7c4.1-32.6,17.4-55.1,31.5-67.6c-111-11.7-227.8-55.1-227.8-248.7
	c0-55.1,19.9-100.2,51.4-135.2c-5-12.5-22.4-64.3,5-133.5c0,0,42.3-13.4,137.5,51.7c40.8-11,82.9-16.6,125.1-16.7
	c42.3,0,85.3,5.8,125.1,16.7C720.8,203.6,763,217,763,217c27.3,69.3,9.9,121,5,133.5c32.3,35.1,51.4,80.1,51.4,135.2
	c0,193.6-116.8,236.2-228.7,248.7c18.2,15.9,34,45.9,34,93.5c0,67.6-0.8,121.9-0.8,138.5c0,13.4,9.1,29.2,34,24.2
	C856.7,923.9,1000,735.3,1000,512.5C1000.8,233.7,776.3,8.3,500.4,8.3z"/>
</svg>
