<?xml version="1.0" encoding="utf-8"?>
<!-- Generator: Adobe Illustrator 28.1.0, SVG Export Plug-In . SVG Version: 6.00 Build 0)  -->
<svg version="1.1" id="Layer_1" xmlns="http://www.w3.org/2000/svg" xmlns:xlink="http://www.w3.org/1999/xlink" x="0px" y="0px"
	 viewBox="0 0 1000 1000" style="enable-background:new 0 0 1000 1000;" xml:space="preserve">
<path d="M500,0C223.9,0,0,223.9,0,500s223.9,500,500,500s500-223.9,500-500S776.1,0,500,0z M330,721.5c-121.5,0-220-99.2-220-221.5
	s98.5-221.5,220-221.5S550,377.7,550,500h0C550,622.3,451.5,721.5,330,721.5z M681.3,708.5c-60.7,0-110-93.4-110-208.5
	s49.2-208.5,110-208.5c60.7,0,110,93.3,110,208.5h0C791.3,615.1,742,708.5,681.3,708.5z M851.3,686.8c-21.4,0-38.7-83.6-38.7-186.8
	s17.3-186.8,38.7-186.8S890,396.8,890,500C890,603.1,872.7,686.8,851.3,686.8z"/>
</svg>
