<?xml version="1.0" encoding="utf-8"?>
<!-- Generator: Adobe Illustrator 28.1.0, SVG Export Plug-In . SVG Version: 6.00 Build 0)  -->
<svg version="1.1" id="Layer_1" xmlns="http://www.w3.org/2000/svg" xmlns:xlink="http://www.w3.org/1999/xlink" x="0px" y="0px"
	 viewBox="0 0 1000 1000" style="enable-background:new 0 0 1000 1000;" xml:space="preserve">
<g>
	<g>
		<path d="M500,0C223.9,0,0,223.9,0,500s223.9,500,500,500s500-223.9,500-500S776.1,0,500,0z M604.2,762.2L464.3,558.7L289.3,762.2
			H244l200.2-232.8L244,238h152.7l132.4,192.7L695,238h45.2L549.3,460h0l207.7,302.2H604.2z"/>
	</g>
	<g>
		<polygon points="505.3,458.4 375.1,272.1 305.6,272.1 467,503 487.3,532 487.3,532 625.5,729.7 695,729.7 525.6,487.4 		"/>
	</g>
</g>
</svg>
